# xmcd
#
# Track frame offsets:
#	183
#	15043
#	33253
#	51193
#	73545
#	91190
#	108698
#	125883
#	144100
#	163490
#	179410
#	196710
#	214430
#	231605
#	249305
#	266833
#
# Disc length: 3803
#
# Revision: 1
# Processed by: cddbd v1.5.1PL0 Copyright (c) Steve Scherf et al.
# Submitted via: ExactAudioCopy v0.95a5
# Normalized: r0:TDELIM( - )
#
DISCID=e80ed910
DTITLE=Various Artist - Ladies Of The Night
DYEAR=1900
DGENRE=Easy Listening
TTITLE0=Martha Reeves - Number One
TTITLE1=Scherrie Payne - Ain't No Mountain High Enough
TTITLE2=Brenda HOlloway - Give Me A Little Inspiration
TTITLE3=Carolyn Crawford - Which Way Do I Turn
TTITLE4=Lynda Laurence - Living With A Married Man
TTITLE5=Syreeta - Moment Of Weakness
TTITLE6=Kim Weston - Investigate
TTITLE7=Mable John - From Bitter To Sweet
TTITLE8=Lois Reeves - Patience Is A Virtue
TTITLE9=Liz Lands - Like A Raging Fire
TTITLE10=Betty Kelly - I Need To Be Independent
TTITLE11=Frances Nero - Close My Eyes
TTITLE12=Linda Griner - Break The Chains Of My Love
TTITLE13=Barbara Randolph - Turning My Back And Walking Away
TTITLE14=Karen Pree - Higher Than A Mountain
TTITLE15=Hattie Littles - Waiting For The Day
EXTD=
EXTT0=
EXTT1=
EXTT2=
EXTT3=
EXTT4=
EXTT5=
EXTT6=
EXTT7=
EXTT8=
EXTT9=
EXTT10=
EXTT11=
EXTT12=
EXTT13=
EXTT14=
EXTT15=
PLAYORDER=
